<svg width="240" height="56" viewBox="0 0 240 56" fill="none" xmlns="http://www.w3.org/2000/svg">
<path d="M30.2109 9.875V44H25.6641L8.48438 17.6797V44H3.96094V9.875H8.48438L25.7344 36.2656V9.875H30.2109ZM48.0938 44.4688C46.3281 44.4688 44.7266 44.1719 43.2891 43.5781C41.8672 42.9688 40.6406 42.1172 39.6094 41.0234C38.5938 39.9297 37.8125 38.6328 37.2656 37.1328C36.7188 35.6328 36.4453 33.9922 36.4453 32.2109V31.2266C36.4453 29.1641 36.75 27.3281 37.3594 25.7188C37.9688 24.0938 38.7969 22.7188 39.8438 21.5938C40.8906 20.4688 42.0781 19.6172 43.4062 19.0391C44.7344 18.4609 46.1094 18.1719 47.5312 18.1719C49.3438 18.1719 50.9062 18.4844 52.2188 19.1094C53.5469 19.7344 54.6328 20.6094 55.4766 21.7344C56.3203 22.8438 56.9453 24.1562 57.3516 25.6719C57.7578 27.1719 57.9609 28.8125 57.9609 30.5938V32.5391H39.0234V29H53.625V28.6719C53.5625 27.5469 53.3281 26.4531 52.9219 25.3906C52.5312 24.3281 51.9062 23.4531 51.0469 22.7656C50.1875 22.0781 49.0156 21.7344 47.5312 21.7344C46.5469 21.7344 45.6406 21.9453 44.8125 22.3672C43.9844 22.7734 43.2734 23.3828 42.6797 24.1953C42.0859 25.0078 41.625 26 41.2969 27.1719C40.9688 28.3438 40.8047 29.6953 40.8047 31.2266V32.2109C40.8047 33.4141 40.9688 34.5469 41.2969 35.6094C41.6406 36.6562 42.1328 37.5781 42.7734 38.375C43.4297 39.1719 44.2188 39.7969 45.1406 40.25C46.0781 40.7031 47.1406 40.9297 48.3281 40.9297C49.8594 40.9297 51.1562 40.6172 52.2188 39.9922C53.2812 39.3672 54.2109 38.5312 55.0078 37.4844L57.6328 39.5703C57.0859 40.3984 56.3906 41.1875 55.5469 41.9375C54.7031 42.6875 53.6641 43.2969 52.4297 43.7656C51.2109 44.2344 49.7656 44.4688 48.0938 44.4688ZM70.4062 40.0859L77.3438 18.6406H81.7734L72.6562 44H69.75L70.4062 40.0859ZM64.6172 18.6406L71.7656 40.2031L72.2578 44H69.3516L60.1641 18.6406H64.6172ZM96.1406 44.4688C94.375 44.4688 92.7734 44.1719 91.3359 43.5781C89.9141 42.9688 88.6875 42.1172 87.6562 41.0234C86.6406 39.9297 85.8594 38.6328 85.3125 37.1328C84.7656 35.6328 84.4922 33.9922 84.4922 32.2109V31.2266C84.4922 29.1641 84.7969 27.3281 85.4062 25.7188C86.0156 24.0938 86.8438 22.7188 87.8906 21.5938C88.9375 20.4688 90.125 19.6172 91.4531 19.0391C92.7812 18.4609 94.1562 18.1719 95.5781 18.1719C97.3906 18.1719 98.9531 18.4844 100.266 19.1094C101.594 19.7344 102.68 20.6094 103.523 21.7344C104.367 22.8438 104.992 24.1562 105.398 25.6719C105.805 27.1719 106.008 28.8125 106.008 30.5938V32.5391H87.0703V29H101.672V28.6719C101.609 27.5469 101.375 26.4531 100.969 25.3906C100.578 24.3281 99.9531 23.4531 99.0938 22.7656C98.2344 22.0781 97.0625 21.7344 95.5781 21.7344C94.5938 21.7344 93.6875 21.9453 92.8594 22.3672C92.0312 22.7734 91.3203 23.3828 90.7266 24.1953C90.1328 25.0078 89.6719 26 89.3438 27.1719C89.0156 28.3438 88.8516 29.6953 88.8516 31.2266V32.2109C88.8516 33.4141 89.0156 34.5469 89.3438 35.6094C89.6875 36.6562 90.1797 37.5781 90.8203 38.375C91.4766 39.1719 92.2656 39.7969 93.1875 40.25C94.125 40.7031 95.1875 40.9297 96.375 40.9297C97.9062 40.9297 99.2031 40.6172 100.266 39.9922C101.328 39.3672 102.258 38.5312 103.055 37.4844L105.68 39.5703C105.133 40.3984 104.438 41.1875 103.594 41.9375C102.75 42.6875 101.711 43.2969 100.477 43.7656C99.2578 44.2344 97.8125 44.4688 96.1406 44.4688ZM115.406 22.625V44H111.07V18.6406H115.289L115.406 22.625ZM123.328 18.5L123.305 22.5312C122.945 22.4531 122.602 22.4062 122.273 22.3906C121.961 22.3594 121.602 22.3438 121.195 22.3438C120.195 22.3438 119.312 22.5 118.547 22.8125C117.781 23.125 117.133 23.5625 116.602 24.125C116.07 24.6875 115.648 25.3594 115.336 26.1406C115.039 26.9062 114.844 27.75 114.75 28.6719L113.531 29.375C113.531 27.8438 113.68 26.4062 113.977 25.0625C114.289 23.7188 114.766 22.5312 115.406 21.5C116.047 20.4531 116.859 19.6406 117.844 19.0625C118.844 18.4688 120.031 18.1719 121.406 18.1719C121.719 18.1719 122.078 18.2109 122.484 18.2891C122.891 18.3516 123.172 18.4219 123.328 18.5Z" fill="#4284F3"/>
<path d="M143.484 9.875V44H138.961V9.875H143.484ZM157.781 25.2266V28.9297H142.5V25.2266H157.781ZM160.102 9.875V13.5781H142.5V9.875H160.102ZM178.992 39.6641V26.6094C178.992 25.6094 178.789 24.7422 178.383 24.0078C177.992 23.2578 177.398 22.6797 176.602 22.2734C175.805 21.8672 174.82 21.6641 173.648 21.6641C172.555 21.6641 171.594 21.8516 170.766 22.2266C169.953 22.6016 169.312 23.0938 168.844 23.7031C168.391 24.3125 168.164 24.9688 168.164 25.6719H163.828C163.828 24.7656 164.062 23.8672 164.531 22.9766C165 22.0859 165.672 21.2812 166.547 20.5625C167.438 19.8281 168.5 19.25 169.734 18.8281C170.984 18.3906 172.375 18.1719 173.906 18.1719C175.75 18.1719 177.375 18.4844 178.781 19.1094C180.203 19.7344 181.312 20.6797 182.109 21.9453C182.922 23.1953 183.328 24.7656 183.328 26.6562V38.4688C183.328 39.3125 183.398 40.2109 183.539 41.1641C183.695 42.1172 183.922 42.9375 184.219 43.625V44H179.695C179.477 43.5 179.305 42.8359 179.18 42.0078C179.055 41.1641 178.992 40.3828 178.992 39.6641ZM179.742 28.625L179.789 31.6719H175.406C174.172 31.6719 173.07 31.7734 172.102 31.9766C171.133 32.1641 170.32 32.4531 169.664 32.8438C169.008 33.2344 168.508 33.7266 168.164 34.3203C167.82 34.8984 167.648 35.5781 167.648 36.3594C167.648 37.1562 167.828 37.8828 168.188 38.5391C168.547 39.1953 169.086 39.7188 169.805 40.1094C170.539 40.4844 171.438 40.6719 172.5 40.6719C173.828 40.6719 175 40.3906 176.016 39.8281C177.031 39.2656 177.836 38.5781 178.43 37.7656C179.039 36.9531 179.367 36.1641 179.414 35.3984L181.266 37.4844C181.156 38.1406 180.859 38.8672 180.375 39.6641C179.891 40.4609 179.242 41.2266 178.43 41.9609C177.633 42.6797 176.68 43.2812 175.57 43.7656C174.477 44.2344 173.242 44.4688 171.867 44.4688C170.148 44.4688 168.641 44.1328 167.344 43.4609C166.062 42.7891 165.062 41.8906 164.344 40.7656C163.641 39.625 163.289 38.3516 163.289 36.9453C163.289 35.5859 163.555 34.3906 164.086 33.3594C164.617 32.3125 165.383 31.4453 166.383 30.7578C167.383 30.0547 168.586 29.5234 169.992 29.1641C171.398 28.8047 172.969 28.625 174.703 28.625H179.742ZM206.133 39.0781V8H210.492V44H206.508L206.133 39.0781ZM189.07 31.6016V31.1094C189.07 29.1719 189.305 27.4141 189.773 25.8359C190.258 24.2422 190.938 22.875 191.812 21.7344C192.703 20.5938 193.758 19.7188 194.977 19.1094C196.211 18.4844 197.586 18.1719 199.102 18.1719C200.695 18.1719 202.086 18.4531 203.273 19.0156C204.477 19.5625 205.492 20.3672 206.32 21.4297C207.164 22.4766 207.828 23.7422 208.312 25.2266C208.797 26.7109 209.133 28.3906 209.32 30.2656V32.4219C209.148 34.2812 208.812 35.9531 208.312 37.4375C207.828 38.9219 207.164 40.1875 206.32 41.2344C205.492 42.2812 204.477 43.0859 203.273 43.6484C202.07 44.1953 200.664 44.4688 199.055 44.4688C197.57 44.4688 196.211 44.1484 194.977 43.5078C193.758 42.8672 192.703 41.9688 191.812 40.8125C190.938 39.6562 190.258 38.2969 189.773 36.7344C189.305 35.1562 189.07 33.4453 189.07 31.6016ZM193.43 31.1094V31.6016C193.43 32.8672 193.555 34.0547 193.805 35.1641C194.07 36.2734 194.477 37.25 195.023 38.0938C195.57 38.9375 196.266 39.6016 197.109 40.0859C197.953 40.5547 198.961 40.7891 200.133 40.7891C201.57 40.7891 202.75 40.4844 203.672 39.875C204.609 39.2656 205.359 38.4609 205.922 37.4609C206.484 36.4609 206.922 35.375 207.234 34.2031V28.5547C207.047 27.6953 206.773 26.8672 206.414 26.0703C206.07 25.2578 205.617 24.5391 205.055 23.9141C204.508 23.2734 203.828 22.7656 203.016 22.3906C202.219 22.0156 201.273 21.8281 200.18 21.8281C198.992 21.8281 197.969 22.0781 197.109 22.5781C196.266 23.0625 195.57 23.7344 195.023 24.5938C194.477 25.4375 194.07 26.4219 193.805 27.5469C193.555 28.6562 193.43 29.8438 193.43 31.1094ZM227.766 44.4688C226 44.4688 224.398 44.1719 222.961 43.5781C221.539 42.9688 220.312 42.1172 219.281 41.0234C218.266 39.9297 217.484 38.6328 216.938 37.1328C216.391 35.6328 216.117 33.9922 216.117 32.2109V31.2266C216.117 29.1641 216.422 27.3281 217.031 25.7188C217.641 24.0938 218.469 22.7188 219.516 21.5938C220.562 20.4688 221.75 19.6172 223.078 19.0391C224.406 18.4609 225.781 18.1719 227.203 18.1719C229.016 18.1719 230.578 18.4844 231.891 19.1094C233.219 19.7344 234.305 20.6094 235.148 21.7344C235.992 22.8438 236.617 24.1562 237.023 25.6719C237.43 27.1719 237.633 28.8125 237.633 30.5938V32.5391H218.695V29H233.297V28.6719C233.234 27.5469 233 26.4531 232.594 25.3906C232.203 24.3281 231.578 23.4531 230.719 22.7656C229.859 22.0781 228.688 21.7344 227.203 21.7344C226.219 21.7344 225.312 21.9453 224.484 22.3672C223.656 22.7734 222.945 23.3828 222.352 24.1953C221.758 25.0078 221.297 26 220.969 27.1719C220.641 28.3438 220.477 29.6953 220.477 31.2266V32.2109C220.477 33.4141 220.641 34.5469 220.969 35.6094C221.312 36.6562 221.805 37.5781 222.445 38.375C223.102 39.1719 223.891 39.7969 224.812 40.25C225.75 40.7031 226.812 40.9297 228 40.9297C229.531 40.9297 230.828 40.6172 231.891 39.9922C232.953 39.3672 233.883 38.5312 234.68 37.4844L237.305 39.5703C236.758 40.3984 236.062 41.1875 235.219 41.9375C234.375 42.6875 233.336 43.2969 232.102 43.7656C230.883 44.2344 229.438 44.4688 227.766 44.4688Z" fill="url(#paint0_linear_2_25)"/>
<defs>
<linearGradient id="paint0_linear_2_25" x1="135" y1="28" x2="239" y2="28" gradientUnits="userSpaceOnUse">
<stop stop-color="#222222"/>
<stop offset="1" stop-color="#222222" stop-opacity="0"/>
</linearGradient>
</defs>
</svg>
