<svg width="376" height="711" viewBox="0 0 376 711" fill="none" xmlns="http://www.w3.org/2000/svg">
<path d="M189.644 87.4732C189.644 87.4732 200.476 113.2 176.103 125.387C151.73 137.573 241.097 160.592 250.576 130.803C250.576 130.803 226.203 121.324 237.035 92.8894L189.644 87.4732Z" fill="#FFB9B9"/>
<path d="M218.756 618.937L217.402 647.372L240.42 651.434V622.999L218.756 618.937Z" fill="#FFB9B9"/>
<path d="M132.097 618.937L133.451 647.372L110.432 651.434V622.999L132.097 618.937Z" fill="#FFB9B9"/>
<path d="M216.048 103.045C236.987 103.045 253.961 86.0703 253.961 65.1314C253.961 44.1924 236.987 27.218 216.048 27.218C195.109 27.218 178.134 44.1924 178.134 65.1314C178.134 86.0703 195.109 103.045 216.048 103.045Z" fill="#FFB9B9"/>
<path d="M268.856 340.003L267.501 350.835L274.272 376.562L283.75 353.544L268.856 340.003Z" fill="#FFB9B9"/>
<path d="M118.556 344.065L110.432 440.203C110.432 440.203 100.954 457.805 106.37 472.7C106.37 472.7 98.2454 493.011 100.954 499.781C103.662 506.551 105.016 513.321 102.308 516.029C99.5994 518.738 98.2454 594.564 102.308 601.334C106.37 608.105 109.078 624.353 109.078 624.353C109.078 624.353 132.097 629.769 137.513 614.875C142.929 599.98 140.221 598.626 145.637 594.564C151.053 590.502 151.053 533.632 151.053 533.632C151.053 533.632 144.283 526.862 148.345 524.154C152.407 521.446 155.115 524.154 151.053 517.383C146.991 510.613 140.221 510.613 146.991 507.905C150.764 506.443 154.39 504.63 157.823 502.489L197.091 399.581C197.091 399.581 211.985 514.675 214.694 520.091C217.402 525.508 221.464 518.737 217.402 525.508C213.339 532.278 211.985 528.216 213.339 532.278C214.694 536.34 205.215 594.564 210.631 606.751C213.793 613.794 216.506 621.03 218.756 628.415C218.756 628.415 240.42 637.894 243.129 631.123C245.837 624.353 244.483 612.167 248.545 610.813C252.607 609.459 256.669 606.751 256.669 595.918C256.669 585.086 264.793 532.278 264.793 532.278C264.793 532.278 255.315 528.216 258.023 521.446C260.731 514.675 260.731 516.029 259.377 510.613C258.023 505.197 255.315 503.843 258.023 499.781C260.731 495.719 260.731 483.532 260.731 483.532L276.98 376.562L264.432 340.003L118.556 344.065Z" fill="#2F2E41"/>
<path d="M220.11 640.602C220.11 640.602 216.048 636.54 214.694 640.602C213.34 644.664 213.34 682.577 213.34 682.577C213.34 682.577 224.172 690.702 224.172 694.764C224.172 698.826 232.296 712.366 251.253 709.658C251.443 709.631 251.63 709.603 251.816 709.573C254.56 709.128 257.163 708.051 259.42 706.427C261.676 704.802 263.524 702.676 264.817 700.214C266.11 697.753 266.812 695.024 266.869 692.245C266.926 689.465 266.336 686.71 265.145 684.198L245.837 643.31C245.837 643.31 232.296 629.769 220.11 640.602Z" fill="#2F2E41"/>
<path d="M130.743 640.602C130.743 640.602 134.805 636.54 136.159 640.602C137.513 644.664 137.513 682.577 137.513 682.577C137.513 682.577 126.68 690.702 126.68 694.764C126.68 698.826 118.556 712.366 99.5995 709.658C99.4099 709.631 99.2224 709.603 99.0369 709.573C96.2924 709.128 93.6891 708.051 91.4327 706.427C89.1763 704.802 87.3286 702.676 86.0356 700.214C84.7427 697.753 84.04 695.024 83.983 692.245C83.9261 689.465 84.5164 686.71 85.7074 684.198L105.016 643.31C105.016 643.31 118.556 629.769 130.743 640.602Z" fill="#2F2E41"/>
<path d="M187.152 24.0651L180.378 21.3532C180.378 21.3532 194.541 5.75999 214.247 7.11599L208.705 1.01421C208.705 1.01421 222.252 -4.40947 234.569 9.82777C241.043 17.312 248.534 26.1093 253.204 36.0194H260.458L257.43 42.686L268.027 49.3526L257.151 48.1551C258.181 53.9106 257.828 59.8286 256.122 65.4211L256.413 70.6904C256.413 70.6904 243.806 51.1837 243.806 48.4718V55.2515C243.806 55.2515 237.032 49.1498 237.032 45.082L233.337 49.8278L231.49 42.3701L208.705 49.8278L212.4 43.7261L198.236 45.76L203.778 38.3023C203.778 38.3023 187.767 47.1159 187.152 54.5736C186.536 62.0311 178.53 71.5227 178.53 71.5227L174.836 64.743C174.836 64.743 169.293 34.2346 187.152 24.0651Z" fill="#2F2E41"/>
<path d="M274.272 149.082H289.358C290.466 149.082 291.542 149.459 292.408 150.151C293.274 150.843 293.878 151.809 294.122 152.89C296.45 163.199 302.448 192.419 301.353 215.431C299.999 243.866 302.707 264.176 301.353 268.239C299.999 272.301 301.353 273.655 301.353 277.717C301.353 281.779 305.415 279.071 301.353 284.487C297.291 289.903 297.291 288.549 297.291 292.611C297.291 296.674 283.75 358.96 283.75 358.96C283.75 358.96 274.441 343.66 264.201 346.571L266.147 291.257L268.856 268.239L264.793 227.617L274.272 149.082Z" fill="#D6D6D6"/>
<path d="M208.6 134.865C208.6 134.865 185.582 134.028 178.134 124.291C178.134 124.291 130.066 140.281 124.649 153.822C119.233 167.362 143.606 228.294 143.606 228.294C143.606 228.294 101.631 352.867 121.941 352.867C142.252 352.867 188.29 369.115 215.371 359.637C232.151 353.817 249.353 349.29 266.824 346.096C266.824 346.096 269.532 309.537 266.824 302.767C264.116 295.997 257.346 300.059 261.408 290.58C265.47 281.102 264.116 279.748 262.762 275.686C261.408 271.624 265.47 266.208 265.47 260.791C265.47 255.375 264.116 243.189 264.116 243.189C264.116 243.189 300.676 157.884 292.551 149.759C284.427 141.635 243.072 125.981 243.072 125.981C243.072 125.981 231.619 140.281 208.6 134.865Z" fill="#D6D6D6"/>
<path d="M375.071 384H0V611.655H375.071V384Z" fill="#D6D6D6"/>
<path d="M102.308 353.544C102.308 353.544 90.1212 417.184 110.432 411.768C130.743 406.351 121.264 353.544 121.264 353.544H102.308Z" fill="#FFB9B9"/>
<path d="M133.451 149.082L128.642 151.487C126.77 152.423 125.14 153.779 123.88 155.45C122.619 157.121 121.763 159.061 121.377 161.118L102.308 262.822C102.308 262.822 96.8914 275.009 96.8914 276.363C96.8914 277.717 99.5995 277.717 96.8914 281.779C94.1833 285.841 90.1212 284.487 92.8293 287.195C94.375 288.6 95.3406 290.532 95.5374 292.611L98.2455 358.96C98.2455 358.96 121.264 352.19 128.035 358.96C128.035 358.96 121.264 338.649 125.326 331.879C129.389 325.109 129.389 315.63 129.389 315.63C129.389 315.63 126.681 315.63 133.451 308.86C140.221 302.09 141.575 299.382 140.221 298.028C138.867 296.674 137.513 284.487 137.513 283.133C137.513 281.779 151.053 191.058 151.053 191.058L133.451 149.082Z" fill="#D6D6D6"/>
<path d="M66.0288 484.117V509H62.7134L50.1865 489.808V509H46.8882V484.117H50.1865L62.7646 503.36V484.117H66.0288ZM70.5576 499.959V499.566C70.5576 498.233 70.7513 496.997 71.1387 495.858C71.526 494.707 72.0843 493.71 72.8135 492.867C73.5426 492.013 74.4256 491.352 75.4624 490.885C76.4992 490.406 77.6613 490.167 78.9487 490.167C80.2476 490.167 81.4154 490.406 82.4521 490.885C83.5003 491.352 84.389 492.013 85.1182 492.867C85.8587 493.71 86.4227 494.707 86.8101 495.858C87.1974 496.997 87.3911 498.233 87.3911 499.566V499.959C87.3911 501.292 87.1974 502.529 86.8101 503.668C86.4227 504.807 85.8587 505.804 85.1182 506.659C84.389 507.502 83.506 508.163 82.4692 508.641C81.4438 509.108 80.2817 509.342 78.9829 509.342C77.6841 509.342 76.5163 509.108 75.4795 508.641C74.4427 508.163 73.554 507.502 72.8135 506.659C72.0843 505.804 71.526 504.807 71.1387 503.668C70.7513 502.529 70.5576 501.292 70.5576 499.959ZM73.7192 499.566V499.959C73.7192 500.882 73.8275 501.754 74.0439 502.574C74.2604 503.383 74.5851 504.101 75.0181 504.728C75.4624 505.354 76.015 505.85 76.6758 506.214C77.3366 506.568 78.1056 506.744 78.9829 506.744C79.8488 506.744 80.6064 506.568 81.2559 506.214C81.9167 505.85 82.4635 505.354 82.8965 504.728C83.3294 504.101 83.6541 503.383 83.8706 502.574C84.0985 501.754 84.2124 500.882 84.2124 499.959V499.566C84.2124 498.655 84.0985 497.795 83.8706 496.986C83.6541 496.166 83.3237 495.442 82.8794 494.815C82.4465 494.177 81.8996 493.676 81.2388 493.312C80.5894 492.947 79.826 492.765 78.9487 492.765C78.0828 492.765 77.3195 492.947 76.6587 493.312C76.0093 493.676 75.4624 494.177 75.0181 494.815C74.5851 495.442 74.2604 496.166 74.0439 496.986C73.8275 497.795 73.7192 498.655 73.7192 499.566ZM103.182 494.183V509H100.003V490.509H103.011L103.182 494.183ZM102.533 499.054L101.063 499.002C101.074 497.738 101.24 496.57 101.559 495.499C101.878 494.417 102.35 493.477 102.977 492.679C103.604 491.882 104.384 491.266 105.318 490.833C106.253 490.389 107.335 490.167 108.565 490.167C109.431 490.167 110.229 490.292 110.958 490.543C111.687 490.782 112.319 491.164 112.855 491.688C113.39 492.212 113.806 492.884 114.103 493.705C114.399 494.525 114.547 495.516 114.547 496.678V509H111.385V496.832C111.385 495.864 111.22 495.089 110.89 494.508C110.571 493.927 110.115 493.505 109.522 493.243C108.93 492.97 108.235 492.833 107.438 492.833C106.503 492.833 105.723 492.998 105.096 493.329C104.47 493.659 103.968 494.115 103.592 494.696C103.216 495.277 102.943 495.943 102.772 496.695C102.612 497.436 102.533 498.222 102.533 499.054ZM114.513 497.311L112.394 497.96C112.405 496.946 112.57 495.972 112.889 495.038C113.22 494.103 113.692 493.272 114.308 492.542C114.934 491.813 115.703 491.238 116.615 490.816C117.526 490.383 118.569 490.167 119.742 490.167C120.733 490.167 121.611 490.298 122.374 490.56C123.149 490.822 123.798 491.227 124.322 491.773C124.858 492.309 125.262 492.998 125.536 493.841C125.809 494.684 125.946 495.687 125.946 496.849V509H122.767V496.815C122.767 495.778 122.602 494.975 122.271 494.405C121.952 493.824 121.497 493.42 120.904 493.192C120.323 492.953 119.628 492.833 118.819 492.833C118.124 492.833 117.509 492.953 116.974 493.192C116.438 493.431 115.988 493.762 115.624 494.183C115.259 494.593 114.98 495.066 114.786 495.602C114.604 496.137 114.513 496.707 114.513 497.311ZM138.404 509.342C137.117 509.342 135.949 509.125 134.901 508.692C133.864 508.248 132.97 507.627 132.218 506.83C131.477 506.032 130.908 505.086 130.509 503.993C130.11 502.899 129.911 501.703 129.911 500.404V499.686C129.911 498.182 130.133 496.843 130.577 495.67C131.021 494.485 131.625 493.482 132.389 492.662C133.152 491.842 134.018 491.221 134.986 490.799C135.955 490.378 136.957 490.167 137.994 490.167C139.316 490.167 140.455 490.395 141.412 490.851C142.381 491.306 143.172 491.944 143.788 492.765C144.403 493.574 144.859 494.531 145.155 495.636C145.451 496.729 145.599 497.926 145.599 499.225V500.643H131.791V498.062H142.438V497.823C142.392 497.003 142.221 496.205 141.925 495.431C141.64 494.656 141.184 494.018 140.558 493.517C139.931 493.015 139.076 492.765 137.994 492.765C137.276 492.765 136.616 492.918 136.012 493.226C135.408 493.522 134.889 493.967 134.457 494.559C134.024 495.152 133.688 495.875 133.448 496.729C133.209 497.584 133.089 498.569 133.089 499.686V500.404C133.089 501.281 133.209 502.107 133.448 502.882C133.699 503.645 134.058 504.317 134.525 504.898C135.003 505.479 135.579 505.935 136.251 506.266C136.935 506.596 137.709 506.761 138.575 506.761C139.692 506.761 140.637 506.533 141.412 506.078C142.187 505.622 142.865 505.012 143.446 504.249L145.36 505.77C144.961 506.374 144.454 506.949 143.839 507.496C143.224 508.043 142.466 508.487 141.566 508.829C140.677 509.171 139.623 509.342 138.404 509.342ZM152.435 494.183V509H149.256V490.509H152.264L152.435 494.183ZM151.786 499.054L150.316 499.002C150.327 497.738 150.493 496.57 150.812 495.499C151.131 494.417 151.603 493.477 152.23 492.679C152.857 491.882 153.637 491.266 154.571 490.833C155.506 490.389 156.588 490.167 157.818 490.167C158.684 490.167 159.482 490.292 160.211 490.543C160.94 490.782 161.572 491.164 162.108 491.688C162.643 492.212 163.059 492.884 163.355 493.705C163.652 494.525 163.8 495.516 163.8 496.678V509H160.638V496.832C160.638 495.864 160.473 495.089 160.143 494.508C159.824 493.927 159.368 493.505 158.775 493.243C158.183 492.97 157.488 492.833 156.69 492.833C155.756 492.833 154.976 492.998 154.349 493.329C153.722 493.659 153.221 494.115 152.845 494.696C152.469 495.277 152.196 495.943 152.025 496.695C151.865 497.436 151.786 498.222 151.786 499.054ZM163.766 497.311L161.646 497.96C161.658 496.946 161.823 495.972 162.142 495.038C162.472 494.103 162.945 493.272 163.561 492.542C164.187 491.813 164.956 491.238 165.868 490.816C166.779 490.383 167.822 490.167 168.995 490.167C169.986 490.167 170.864 490.298 171.627 490.56C172.402 490.822 173.051 491.227 173.575 491.773C174.111 492.309 174.515 492.998 174.789 493.841C175.062 494.684 175.199 495.687 175.199 496.849V509H172.02V496.815C172.02 495.778 171.855 494.975 171.524 494.405C171.205 493.824 170.75 493.42 170.157 493.192C169.576 492.953 168.881 492.833 168.072 492.833C167.377 492.833 166.762 492.953 166.227 493.192C165.691 493.431 165.241 493.762 164.876 494.183C164.512 494.593 164.233 495.066 164.039 495.602C163.857 496.137 163.766 496.707 163.766 497.311ZM179.146 499.959V499.566C179.146 498.233 179.34 496.997 179.728 495.858C180.115 494.707 180.673 493.71 181.402 492.867C182.132 492.013 183.014 491.352 184.051 490.885C185.088 490.406 186.25 490.167 187.538 490.167C188.836 490.167 190.004 490.406 191.041 490.885C192.089 491.352 192.978 492.013 193.707 492.867C194.448 493.71 195.012 494.707 195.399 495.858C195.786 496.997 195.98 498.233 195.98 499.566V499.959C195.98 501.292 195.786 502.529 195.399 503.668C195.012 504.807 194.448 505.804 193.707 506.659C192.978 507.502 192.095 508.163 191.058 508.641C190.033 509.108 188.871 509.342 187.572 509.342C186.273 509.342 185.105 509.108 184.068 508.641C183.032 508.163 182.143 507.502 181.402 506.659C180.673 505.804 180.115 504.807 179.728 503.668C179.34 502.529 179.146 501.292 179.146 499.959ZM182.308 499.566V499.959C182.308 500.882 182.416 501.754 182.633 502.574C182.849 503.383 183.174 504.101 183.607 504.728C184.051 505.354 184.604 505.85 185.265 506.214C185.925 506.568 186.694 506.744 187.572 506.744C188.438 506.744 189.195 506.568 189.845 506.214C190.506 505.85 191.052 505.354 191.485 504.728C191.918 504.101 192.243 503.383 192.459 502.574C192.687 501.754 192.801 500.882 192.801 499.959V499.566C192.801 498.655 192.687 497.795 192.459 496.986C192.243 496.166 191.913 495.442 191.468 494.815C191.035 494.177 190.488 493.676 189.828 493.312C189.178 492.947 188.415 492.765 187.538 492.765C186.672 492.765 185.908 492.947 185.248 493.312C184.598 493.676 184.051 494.177 183.607 494.815C183.174 495.442 182.849 496.166 182.633 496.986C182.416 497.795 182.308 498.655 182.308 499.566ZM203.106 493.414V509H199.945V490.509H203.021L203.106 493.414ZM208.883 490.406L208.866 493.346C208.604 493.289 208.353 493.255 208.114 493.243C207.886 493.22 207.624 493.209 207.328 493.209C206.598 493.209 205.955 493.323 205.396 493.551C204.838 493.779 204.365 494.098 203.978 494.508C203.591 494.918 203.283 495.408 203.055 495.978C202.839 496.536 202.696 497.151 202.628 497.823L201.739 498.336C201.739 497.219 201.847 496.171 202.064 495.191C202.292 494.212 202.639 493.346 203.106 492.594C203.574 491.83 204.166 491.238 204.884 490.816C205.613 490.383 206.479 490.167 207.481 490.167C207.709 490.167 207.971 490.195 208.268 490.252C208.564 490.298 208.769 490.349 208.883 490.406ZM217.308 507.086L222.452 490.509H225.836L218.419 511.854C218.248 512.31 218.02 512.8 217.735 513.324C217.462 513.859 217.109 514.366 216.676 514.845C216.243 515.323 215.719 515.711 215.104 516.007C214.5 516.314 213.776 516.468 212.933 516.468C212.682 516.468 212.363 516.434 211.976 516.366C211.589 516.297 211.315 516.24 211.156 516.195L211.139 513.631C211.23 513.643 211.372 513.654 211.566 513.666C211.771 513.688 211.913 513.7 211.993 513.7C212.711 513.7 213.32 513.603 213.822 513.409C214.323 513.227 214.745 512.914 215.086 512.469C215.44 512.036 215.742 511.438 215.992 510.675L217.308 507.086ZM213.531 490.509L218.333 504.864L219.154 508.197L216.881 509.359L210.079 490.509H213.531ZM240.807 490.509V509H237.628V490.509H240.807ZM237.389 485.604C237.389 485.091 237.542 484.658 237.85 484.305C238.169 483.952 238.636 483.775 239.251 483.775C239.855 483.775 240.317 483.952 240.636 484.305C240.966 484.658 241.131 485.091 241.131 485.604C241.131 486.094 240.966 486.515 240.636 486.869C240.317 487.21 239.855 487.381 239.251 487.381C238.636 487.381 238.169 487.21 237.85 486.869C237.542 486.515 237.389 486.094 237.389 485.604ZM249.027 494.183V509H245.848V490.509H248.856L249.027 494.183ZM248.377 499.054L246.908 499.002C246.919 497.738 247.084 496.57 247.403 495.499C247.722 494.417 248.195 493.477 248.822 492.679C249.448 491.882 250.229 491.266 251.163 490.833C252.097 490.389 253.18 490.167 254.41 490.167C255.276 490.167 256.074 490.292 256.803 490.543C257.532 490.782 258.164 491.164 258.7 491.688C259.235 492.212 259.651 492.884 259.947 493.705C260.243 494.525 260.392 495.516 260.392 496.678V509H257.23V496.832C257.23 495.864 257.065 495.089 256.734 494.508C256.415 493.927 255.96 493.505 255.367 493.243C254.775 492.97 254.08 492.833 253.282 492.833C252.348 492.833 251.568 492.998 250.941 493.329C250.314 493.659 249.813 494.115 249.437 494.696C249.061 495.277 248.788 495.943 248.617 496.695C248.457 497.436 248.377 498.222 248.377 499.054ZM260.357 497.311L258.238 497.96C258.25 496.946 258.415 495.972 258.734 495.038C259.064 494.103 259.537 493.272 260.152 492.542C260.779 491.813 261.548 491.238 262.459 490.816C263.371 490.383 264.413 490.167 265.587 490.167C266.578 490.167 267.455 490.298 268.219 490.56C268.993 490.822 269.643 491.227 270.167 491.773C270.702 492.309 271.107 492.998 271.38 493.841C271.654 494.684 271.791 495.687 271.791 496.849V509H268.612V496.815C268.612 495.778 268.447 494.975 268.116 494.405C267.797 493.824 267.341 493.42 266.749 493.192C266.168 492.953 265.473 492.833 264.664 492.833C263.969 492.833 263.354 492.953 262.818 493.192C262.283 493.431 261.833 493.762 261.468 494.183C261.104 494.593 260.825 495.066 260.631 495.602C260.449 496.137 260.357 496.707 260.357 497.311ZM287.479 505.838V496.319C287.479 495.59 287.331 494.958 287.035 494.422C286.75 493.875 286.317 493.454 285.736 493.158C285.155 492.861 284.437 492.713 283.583 492.713C282.785 492.713 282.084 492.85 281.48 493.124C280.888 493.397 280.421 493.756 280.079 494.2C279.749 494.645 279.583 495.123 279.583 495.636H276.422C276.422 494.975 276.593 494.32 276.935 493.67C277.276 493.021 277.766 492.434 278.404 491.91C279.054 491.375 279.828 490.953 280.729 490.646C281.64 490.326 282.654 490.167 283.771 490.167C285.115 490.167 286.3 490.395 287.325 490.851C288.362 491.306 289.171 491.996 289.752 492.918C290.344 493.83 290.641 494.975 290.641 496.354V504.967C290.641 505.582 290.692 506.237 290.794 506.932C290.908 507.627 291.074 508.225 291.29 508.727V509H287.992C287.832 508.635 287.707 508.151 287.616 507.547C287.525 506.932 287.479 506.362 287.479 505.838ZM288.026 497.789L288.06 500.011H284.864C283.964 500.011 283.161 500.085 282.455 500.233C281.748 500.37 281.156 500.58 280.677 500.865C280.199 501.15 279.834 501.509 279.583 501.942C279.333 502.363 279.208 502.859 279.208 503.429C279.208 504.01 279.339 504.54 279.601 505.018C279.863 505.497 280.256 505.878 280.78 506.163C281.315 506.437 281.97 506.573 282.745 506.573C283.714 506.573 284.568 506.368 285.309 505.958C286.049 505.548 286.636 505.047 287.069 504.454C287.513 503.862 287.752 503.286 287.787 502.728L289.137 504.249C289.057 504.728 288.84 505.257 288.487 505.838C288.134 506.419 287.661 506.978 287.069 507.513C286.488 508.037 285.793 508.476 284.984 508.829C284.186 509.171 283.286 509.342 282.284 509.342C281.03 509.342 279.931 509.097 278.985 508.607C278.051 508.117 277.322 507.462 276.798 506.642C276.285 505.81 276.029 504.881 276.029 503.856C276.029 502.865 276.222 501.993 276.61 501.241C276.997 500.478 277.556 499.846 278.285 499.344C279.014 498.832 279.891 498.444 280.917 498.182C281.942 497.92 283.087 497.789 284.352 497.789H288.026ZM307.594 490.509H310.465V508.607C310.465 510.236 310.134 511.626 309.474 512.777C308.813 513.928 307.89 514.799 306.705 515.392C305.532 515.995 304.176 516.297 302.638 516.297C302 516.297 301.248 516.195 300.382 515.99C299.527 515.796 298.684 515.46 297.853 514.981C297.032 514.514 296.343 513.882 295.785 513.084L297.442 511.205C298.217 512.139 299.026 512.788 299.869 513.153C300.724 513.517 301.567 513.7 302.398 513.7C303.401 513.7 304.267 513.512 304.996 513.136C305.725 512.76 306.289 512.201 306.688 511.461C307.098 510.732 307.303 509.832 307.303 508.761V494.576L307.594 490.509ZM294.862 499.959V499.601C294.862 498.188 295.027 496.906 295.357 495.755C295.699 494.593 296.183 493.596 296.81 492.765C297.448 491.933 298.217 491.295 299.117 490.851C300.017 490.395 301.031 490.167 302.159 490.167C303.321 490.167 304.335 490.372 305.201 490.782C306.078 491.181 306.819 491.768 307.423 492.542C308.038 493.306 308.522 494.229 308.875 495.311C309.229 496.393 309.474 497.618 309.61 498.985V500.558C309.485 501.913 309.24 503.132 308.875 504.215C308.522 505.297 308.038 506.22 307.423 506.983C306.819 507.747 306.078 508.333 305.201 508.744C304.324 509.142 303.299 509.342 302.125 509.342C301.02 509.342 300.017 509.108 299.117 508.641C298.229 508.174 297.465 507.519 296.827 506.676C296.189 505.833 295.699 504.841 295.357 503.702C295.027 502.551 294.862 501.304 294.862 499.959ZM298.023 499.601V499.959C298.023 500.882 298.115 501.748 298.297 502.557C298.491 503.366 298.781 504.078 299.168 504.693C299.567 505.309 300.074 505.793 300.689 506.146C301.305 506.488 302.04 506.659 302.894 506.659C303.942 506.659 304.808 506.437 305.492 505.992C306.175 505.548 306.716 504.961 307.115 504.232C307.525 503.503 307.844 502.711 308.072 501.856V497.738C307.947 497.111 307.753 496.507 307.491 495.926C307.241 495.334 306.91 494.81 306.5 494.354C306.101 493.887 305.606 493.517 305.013 493.243C304.421 492.97 303.726 492.833 302.928 492.833C302.062 492.833 301.316 493.015 300.689 493.38C300.074 493.733 299.567 494.223 299.168 494.85C298.781 495.465 298.491 496.183 298.297 497.003C298.115 497.812 298.023 498.678 298.023 499.601ZM322.94 509.342C321.653 509.342 320.485 509.125 319.437 508.692C318.4 508.248 317.506 507.627 316.754 506.83C316.013 506.032 315.444 505.086 315.045 503.993C314.646 502.899 314.447 501.703 314.447 500.404V499.686C314.447 498.182 314.669 496.843 315.113 495.67C315.558 494.485 316.161 493.482 316.925 492.662C317.688 491.842 318.554 491.221 319.522 490.799C320.491 490.378 321.493 490.167 322.53 490.167C323.852 490.167 324.991 490.395 325.948 490.851C326.917 491.306 327.708 491.944 328.324 492.765C328.939 493.574 329.395 494.531 329.691 495.636C329.987 496.729 330.135 497.926 330.135 499.225V500.643H316.327V498.062H326.974V497.823C326.928 497.003 326.757 496.205 326.461 495.431C326.176 494.656 325.72 494.018 325.094 493.517C324.467 493.015 323.613 492.765 322.53 492.765C321.812 492.765 321.152 492.918 320.548 493.226C319.944 493.522 319.426 493.967 318.993 494.559C318.56 495.152 318.224 495.875 317.984 496.729C317.745 497.584 317.625 498.569 317.625 499.686V500.404C317.625 501.281 317.745 502.107 317.984 502.882C318.235 503.645 318.594 504.317 319.061 504.898C319.54 505.479 320.115 505.935 320.787 506.266C321.471 506.596 322.245 506.761 323.111 506.761C324.228 506.761 325.174 506.533 325.948 506.078C326.723 505.622 327.401 505.012 327.982 504.249L329.896 505.77C329.497 506.374 328.99 506.949 328.375 507.496C327.76 508.043 327.002 508.487 326.102 508.829C325.213 509.171 324.16 509.342 322.94 509.342Z" fill="#6D6D6D"/>
</svg>
