<svg width="450" height="596" viewBox="0 0 450 596" fill="none" xmlns="http://www.w3.org/2000/svg">
<path d="M449.736 262.629C449.666 260.154 448.633 257.805 446.857 256.081C445.082 254.356 442.703 253.393 440.228 253.395C439.724 253.404 439.223 253.454 438.728 253.545L422.107 224.861L404.585 228.173L431.602 265.006C432.139 267.028 433.33 268.817 434.99 270.091C436.65 271.365 438.686 272.054 440.779 272.05C441.969 272.037 443.146 271.789 444.241 271.32C445.336 270.852 446.328 270.172 447.16 269.321C447.993 268.469 448.649 267.461 449.092 266.356C449.535 265.251 449.756 264.069 449.742 262.878C449.741 262.795 449.739 262.712 449.736 262.629Z" fill="#A0616A"/>
<path d="M393.295 581.028L379.409 581.026L372.802 527.463L393.298 527.464L393.295 581.028Z" fill="#A0616A"/>
<path d="M393.784 595.514L351.081 595.512V594.972C351.081 590.564 352.833 586.337 355.95 583.22C359.067 580.103 363.294 578.351 367.702 578.351H367.703L375.504 572.434L390.057 578.352L393.785 578.352L393.784 595.514Z" fill="#2F2E41"/>
<path d="M407.928 501.241L398.57 511.5L354.542 480.287L368.354 465.144L407.928 501.241Z" fill="#A0616A"/>
<path d="M418.961 510.641L390.184 542.192L389.785 541.828C386.528 538.857 384.585 534.715 384.382 530.311C384.18 525.908 385.734 521.604 388.705 518.347L388.705 518.346L389.589 508.595L403.769 501.83L406.281 499.076L418.961 510.641Z" fill="#2F2E41"/>
<path d="M304.016 225.276L278 272.646L280 306.646L269 416.646L372 502.646L385 483.646L327 409.646L327.695 404.398C326.671 402.858 326.24 400.998 326.483 399.164C326.726 397.331 327.626 395.647 329.017 394.427C334 389.646 329.765 388.782 329.765 388.782L338 326.646L397 314.851L372.252 221.469L304.016 225.276Z" fill="#2F2E41"/>
<path d="M339 292.646L370 553.646L397 556.362V465.144C397 465.144 392 460.181 397 457.914C402 455.646 397 447.142 397 447.142V314.851L372 275.646L339 292.646Z" fill="#2F2E41"/>
<path d="M284 74.6458L260 83.6458L246 115.646C246 115.646 214 131.646 226 153.646C238 175.646 286.287 223.933 286.287 223.933C280.38 235.457 282.401 244.322 292 250.646C304.533 270.748 339.722 260.9 379 245.646C386.269 227.921 375.016 200.469 363.955 173.118L367 136.646C367 136.646 332.504 86.449 327 86.6458C321.496 86.8426 300 84.6458 300 84.6458L284 74.6458Z" fill="#4284F3"/>
<path d="M318 91.7481C320.064 89.7932 322.536 88.3199 325.237 87.4343C327.938 86.5487 330.803 86.2728 333.623 86.6264C336.444 86.98 339.152 87.9544 341.551 89.4794C343.95 91.0045 345.981 93.0423 347.499 95.4463L399.813 178.319C404.833 180.697 407.357 186.059 408.856 192.646C412.585 191.381 415.409 193.84 416.269 204.389L436 235.646L418 255.646L393.106 222.646C387.318 221.116 390.009 212.821 386.005 213.233C382 213.646 380.064 205.359 380.064 205.359C375.013 205.302 373.529 202.932 375 198.646L324 125.764L318 91.7481Z" fill="#4284F3"/>
<path d="M95.5496 89.8826C96.3132 92.2372 97.9655 94.2009 100.155 95.3559C102.344 96.5109 104.898 96.766 107.273 96.0669C107.753 95.9172 108.22 95.7279 108.669 95.5011L132.691 118.348L148.573 110.238L112.282 82.4981C111.198 80.7082 109.551 79.3277 107.599 78.572C105.648 77.8164 103.501 77.7281 101.494 78.3209C100.355 78.6692 99.2955 79.2384 98.3767 79.996C97.4578 80.7536 96.6971 81.6848 96.1381 82.7364C95.5791 83.788 95.2327 84.9394 95.1187 86.1248C95.0046 87.3103 95.1252 88.5066 95.4735 89.6455C95.4978 89.7249 95.5231 89.8039 95.5496 89.8826Z" fill="#A0616A"/>
<path d="M244 124.646L211 134.646L187.74 130.949L182.523 127.222C180.276 121.147 175.749 118.291 169.716 117.559C169.716 117.559 164.837 119.231 164.918 113.938C165 108.646 133 89.6458 133 89.6458L119 114.646L137 136.646C143.389 136.843 147.327 136 144 143.646C145.358 151.009 144.419 149.3 149.903 149.434L178 177.646L237 186.646L274.472 173.447L244 124.646Z" fill="#4284F3"/>
<path d="M252.21 73.4736C269.175 73.4736 282.927 59.7213 282.927 42.7571C282.927 25.7929 269.175 12.0407 252.21 12.0407C235.246 12.0407 221.494 25.7929 221.494 42.7571C221.494 59.7213 235.246 73.4736 252.21 73.4736Z" fill="#A0616A"/>
<path d="M271.918 42.1634C271.891 41.8209 271.856 41.4785 271.812 41.1361C271.769 41.4821 271.805 41.8333 271.918 42.1634Z" fill="#2F2E41"/>
<path d="M209.464 21.6727C208.925 17.9874 210.977 13.8102 214.566 12.7881C216.802 12.1498 219.188 12.7615 221.507 12.8019C228.013 12.9119 239.577 2.072 245.858 0.411288C252.15 -1.24471 260.293 2.21621 260.802 8.70169C276.892 3.91124 289.178 14.7495 289.928 31.8423C290.515 45.2101 279.146 63.4298 267.157 69.3761C265.689 61.5972 271.126 49.9372 269.662 42.1664C269.408 40.0256 268.717 37.9597 267.632 36.0966C266.432 34.3143 264.229 33.0264 262.147 33.5532C261.297 33.8048 260.573 34.3656 260.117 35.1249C259.661 35.8843 259.505 36.787 259.682 37.6551C258.463 35.5858 256.748 33.853 254.691 32.6133C252.634 31.3736 250.3 30.6662 247.901 30.5551C245.502 30.4439 243.113 30.9324 240.951 31.9765C238.788 33.0207 236.92 34.5874 235.515 36.5351L237.212 29.5471C232.905 34.2818 227.336 37.6888 221.16 39.3679C220.809 38.9276 220.544 38.4248 220.38 37.8859C220.201 37.3338 220.168 36.7449 220.284 36.1763C220.4 35.6077 220.661 35.0787 221.042 34.6409C220.21 35.2844 219.517 36.0898 219.004 37.0085C218.492 37.9273 218.17 38.9403 218.06 39.9865C214.343 40.6292 210.519 39.8774 207.322 37.8753C204.238 35.7755 210.003 25.358 209.464 21.6727Z" fill="#2F2E41"/>
<path d="M4.59967 93.8485C7.24172 91.7158 10.8427 90.5035 14.6156 90.5H175.384C179.157 90.5035 182.758 91.7158 185.4 93.8485C188.04 95.979 189.496 98.8418 189.5 101.799V276.201C189.496 279.158 188.04 282.021 185.4 284.152C182.758 286.284 179.157 287.497 175.384 287.5H14.6158C10.8429 287.497 7.24172 286.284 4.59961 284.152C1.96045 282.021 0.504225 279.158 0.5 276.202V101.798C0.50428 98.8416 1.96052 95.9789 4.59967 93.8485Z" fill="white" stroke="#222222"/>
<path d="M44.04 173.636H38.3418V171.336H44.04C45.1436 171.336 46.0371 171.16 46.7207 170.809C47.4043 170.457 47.9023 169.969 48.2148 169.344C48.5371 168.719 48.6982 168.006 48.6982 167.205C48.6982 166.473 48.5371 165.784 48.2148 165.14C47.9023 164.495 47.4043 163.978 46.7207 163.587C46.0371 163.187 45.1436 162.986 44.04 162.986H39.001V182H36.1738V160.672H44.04C45.6514 160.672 47.0137 160.95 48.127 161.507C49.2402 162.063 50.085 162.835 50.6611 163.821C51.2373 164.798 51.5254 165.916 51.5254 167.176C51.5254 168.543 51.2373 169.71 50.6611 170.677C50.085 171.644 49.2402 172.381 48.127 172.889C47.0137 173.387 45.6514 173.636 44.04 173.636ZM63.8594 179.29V171.131C63.8594 170.506 63.7324 169.964 63.4785 169.505C63.2344 169.036 62.8633 168.675 62.3652 168.421C61.8672 168.167 61.252 168.04 60.5195 168.04C59.8359 168.04 59.2354 168.157 58.7178 168.392C58.21 168.626 57.8096 168.934 57.5166 169.314C57.2334 169.695 57.0918 170.105 57.0918 170.545H54.3818C54.3818 169.979 54.5283 169.417 54.8213 168.86C55.1143 168.304 55.5342 167.801 56.0811 167.352C56.6377 166.893 57.3018 166.531 58.0732 166.268C58.8545 165.994 59.7236 165.857 60.6807 165.857C61.833 165.857 62.8486 166.053 63.7275 166.443C64.6162 166.834 65.3096 167.425 65.8076 168.216C66.3154 168.997 66.5693 169.979 66.5693 171.16V178.543C66.5693 179.07 66.6133 179.632 66.7012 180.228C66.7988 180.823 66.9404 181.336 67.126 181.766V182H64.2988C64.1621 181.688 64.0547 181.272 63.9766 180.755C63.8984 180.228 63.8594 179.739 63.8594 179.29ZM64.3281 172.391L64.3574 174.295H61.6182C60.8467 174.295 60.1582 174.358 59.5527 174.485C58.9473 174.603 58.4395 174.783 58.0293 175.027C57.6191 175.271 57.3066 175.579 57.0918 175.95C56.877 176.312 56.7695 176.736 56.7695 177.225C56.7695 177.723 56.8818 178.177 57.1064 178.587C57.3311 178.997 57.668 179.324 58.1172 179.568C58.5762 179.803 59.1377 179.92 59.8018 179.92C60.6318 179.92 61.3643 179.744 61.999 179.393C62.6338 179.041 63.1367 178.611 63.5078 178.104C63.8887 177.596 64.0938 177.103 64.123 176.624L65.2803 177.928C65.2119 178.338 65.0264 178.792 64.7236 179.29C64.4209 179.788 64.0156 180.267 63.5078 180.726C63.0098 181.175 62.4141 181.551 61.7207 181.854C61.0371 182.146 60.2656 182.293 59.4062 182.293C58.332 182.293 57.3896 182.083 56.5791 181.663C55.7783 181.243 55.1533 180.682 54.7041 179.979C54.2646 179.266 54.0449 178.47 54.0449 177.591C54.0449 176.741 54.2109 175.994 54.543 175.35C54.875 174.695 55.3535 174.153 55.9785 173.724C56.6035 173.284 57.3555 172.952 58.2344 172.728C59.1133 172.503 60.0947 172.391 61.1787 172.391H64.3281ZM81.1006 166.15H83.5615V181.663C83.5615 183.06 83.2783 184.251 82.7119 185.237C82.1455 186.224 81.3545 186.971 80.3389 187.479C79.333 187.996 78.1709 188.255 76.8525 188.255C76.3057 188.255 75.6611 188.167 74.9189 187.991C74.1865 187.825 73.4639 187.537 72.751 187.127C72.0479 186.727 71.457 186.185 70.9785 185.501L72.3994 183.89C73.0635 184.69 73.7568 185.247 74.4795 185.56C75.2119 185.872 75.9346 186.028 76.6475 186.028C77.5068 186.028 78.249 185.867 78.874 185.545C79.499 185.223 79.9824 184.744 80.3242 184.109C80.6758 183.484 80.8516 182.713 80.8516 181.795V169.637L81.1006 166.15ZM70.1875 174.251V173.943C70.1875 172.732 70.3291 171.634 70.6123 170.647C70.9053 169.651 71.3203 168.797 71.8574 168.084C72.4043 167.371 73.0635 166.824 73.835 166.443C74.6064 166.053 75.4756 165.857 76.4424 165.857C77.4385 165.857 78.3076 166.033 79.0498 166.385C79.8018 166.727 80.4365 167.229 80.9541 167.894C81.4814 168.548 81.8965 169.339 82.1992 170.267C82.502 171.194 82.7119 172.244 82.8291 173.416V174.764C82.7217 175.926 82.5117 176.971 82.1992 177.898C81.8965 178.826 81.4814 179.617 80.9541 180.271C80.4365 180.926 79.8018 181.429 79.0498 181.78C78.2979 182.122 77.4189 182.293 76.4131 182.293C75.4658 182.293 74.6064 182.093 73.835 181.692C73.0732 181.292 72.4189 180.73 71.8721 180.008C71.3252 179.285 70.9053 178.436 70.6123 177.459C70.3291 176.473 70.1875 175.403 70.1875 174.251ZM72.8975 173.943V174.251C72.8975 175.042 72.9756 175.784 73.1318 176.478C73.2979 177.171 73.5469 177.781 73.8789 178.309C74.2207 178.836 74.6553 179.251 75.1826 179.554C75.71 179.847 76.3398 179.993 77.0723 179.993C77.9707 179.993 78.7129 179.803 79.2988 179.422C79.8848 179.041 80.3486 178.538 80.6904 177.913C81.042 177.288 81.3154 176.609 81.5107 175.877V172.347C81.4033 171.81 81.2373 171.292 81.0127 170.794C80.7979 170.286 80.5146 169.837 80.1631 169.446C79.8213 169.046 79.3965 168.729 78.8887 168.494C78.3809 168.26 77.7852 168.143 77.1016 168.143C76.3594 168.143 75.7197 168.299 75.1826 168.611C74.6553 168.914 74.2207 169.334 73.8789 169.871C73.5469 170.398 73.2979 171.014 73.1318 171.717C72.9756 172.41 72.8975 173.152 72.8975 173.943ZM94.2549 182.293C93.1514 182.293 92.1504 182.107 91.252 181.736C90.3633 181.355 89.5967 180.823 88.9521 180.14C88.3174 179.456 87.8291 178.646 87.4873 177.708C87.1455 176.771 86.9746 175.745 86.9746 174.632V174.017C86.9746 172.728 87.165 171.58 87.5459 170.574C87.9268 169.559 88.4443 168.699 89.0986 167.996C89.7529 167.293 90.4951 166.761 91.3252 166.399C92.1553 166.038 93.0146 165.857 93.9033 165.857C95.0361 165.857 96.0127 166.053 96.833 166.443C97.6631 166.834 98.3418 167.381 98.8691 168.084C99.3965 168.777 99.7871 169.598 100.041 170.545C100.295 171.482 100.422 172.508 100.422 173.621V174.837H88.5859V172.625H97.7119V172.42C97.6729 171.717 97.5264 171.033 97.2725 170.369C97.0283 169.705 96.6377 169.158 96.1006 168.729C95.5635 168.299 94.8311 168.084 93.9033 168.084C93.2881 168.084 92.7217 168.216 92.2041 168.479C91.6865 168.733 91.2422 169.114 90.8711 169.622C90.5 170.13 90.2119 170.75 90.0068 171.482C89.8018 172.215 89.6992 173.06 89.6992 174.017V174.632C89.6992 175.384 89.8018 176.092 90.0068 176.756C90.2217 177.41 90.5293 177.986 90.9297 178.484C91.3398 178.982 91.833 179.373 92.4092 179.656C92.9951 179.939 93.6592 180.081 94.4014 180.081C95.3584 180.081 96.1689 179.886 96.833 179.495C97.4971 179.104 98.0781 178.582 98.5762 177.928L100.217 179.231C99.875 179.749 99.4404 180.242 98.9131 180.711C98.3857 181.18 97.7363 181.561 96.9648 181.854C96.2031 182.146 95.2998 182.293 94.2549 182.293ZM127.844 160.672V182H125.002L114.265 165.55V182H111.438V160.672H114.265L125.046 177.166V160.672H127.844ZM131.726 174.251V173.914C131.726 172.771 131.892 171.712 132.224 170.735C132.556 169.749 133.034 168.895 133.659 168.172C134.284 167.439 135.041 166.873 135.93 166.473C136.818 166.062 137.814 165.857 138.918 165.857C140.031 165.857 141.032 166.062 141.921 166.473C142.819 166.873 143.581 167.439 144.206 168.172C144.841 168.895 145.324 169.749 145.656 170.735C145.988 171.712 146.154 172.771 146.154 173.914V174.251C146.154 175.394 145.988 176.453 145.656 177.43C145.324 178.406 144.841 179.261 144.206 179.993C143.581 180.716 142.824 181.282 141.936 181.692C141.057 182.093 140.061 182.293 138.947 182.293C137.834 182.293 136.833 182.093 135.944 181.692C135.056 181.282 134.294 180.716 133.659 179.993C133.034 179.261 132.556 178.406 132.224 177.43C131.892 176.453 131.726 175.394 131.726 174.251ZM134.436 173.914V174.251C134.436 175.042 134.528 175.789 134.714 176.492C134.899 177.186 135.178 177.801 135.549 178.338C135.93 178.875 136.403 179.3 136.97 179.612C137.536 179.915 138.195 180.066 138.947 180.066C139.689 180.066 140.339 179.915 140.896 179.612C141.462 179.3 141.931 178.875 142.302 178.338C142.673 177.801 142.951 177.186 143.137 176.492C143.332 175.789 143.43 175.042 143.43 174.251V173.914C143.43 173.133 143.332 172.396 143.137 171.702C142.951 170.999 142.668 170.379 142.287 169.842C141.916 169.295 141.447 168.865 140.881 168.553C140.324 168.24 139.67 168.084 138.918 168.084C138.176 168.084 137.521 168.24 136.955 168.553C136.398 168.865 135.93 169.295 135.549 169.842C135.178 170.379 134.899 170.999 134.714 171.702C134.528 172.396 134.436 173.133 134.436 173.914ZM156.188 166.15V168.23H147.619V166.15H156.188ZM150.52 162.298H153.229V178.074C153.229 178.611 153.312 179.017 153.479 179.29C153.645 179.563 153.859 179.744 154.123 179.832C154.387 179.92 154.67 179.964 154.973 179.964C155.197 179.964 155.432 179.944 155.676 179.905C155.93 179.856 156.12 179.817 156.247 179.788L156.262 182C156.047 182.068 155.764 182.132 155.412 182.19C155.07 182.259 154.655 182.293 154.167 182.293C153.503 182.293 152.893 182.161 152.336 181.897C151.779 181.634 151.335 181.194 151.003 180.579C150.681 179.954 150.52 179.114 150.52 178.06V162.298ZM59.084 195.672V217H56.2568V195.672H59.084ZM68.0195 205.267V207.581H58.4688V205.267H68.0195ZM69.4697 195.672V197.986H58.4688V195.672H69.4697ZM71.3887 209.251V208.914C71.3887 207.771 71.5547 206.712 71.8867 205.735C72.2188 204.749 72.6973 203.895 73.3223 203.172C73.9473 202.439 74.7041 201.873 75.5928 201.473C76.4814 201.062 77.4775 200.857 78.5811 200.857C79.6943 200.857 80.6953 201.062 81.584 201.473C82.4824 201.873 83.2441 202.439 83.8691 203.172C84.5039 203.895 84.9873 204.749 85.3193 205.735C85.6514 206.712 85.8174 207.771 85.8174 208.914V209.251C85.8174 210.394 85.6514 211.453 85.3193 212.43C84.9873 213.406 84.5039 214.261 83.8691 214.993C83.2441 215.716 82.4873 216.282 81.5986 216.692C80.7197 217.093 79.7236 217.293 78.6104 217.293C77.4971 217.293 76.4961 217.093 75.6074 216.692C74.7188 216.282 73.957 215.716 73.3223 214.993C72.6973 214.261 72.2188 213.406 71.8867 212.43C71.5547 211.453 71.3887 210.394 71.3887 209.251ZM74.0986 208.914V209.251C74.0986 210.042 74.1914 210.789 74.377 211.492C74.5625 212.186 74.8408 212.801 75.2119 213.338C75.5928 213.875 76.0664 214.3 76.6328 214.612C77.1992 214.915 77.8584 215.066 78.6104 215.066C79.3525 215.066 80.002 214.915 80.5586 214.612C81.125 214.3 81.5938 213.875 81.9648 213.338C82.3359 212.801 82.6143 212.186 82.7998 211.492C82.9951 210.789 83.0928 210.042 83.0928 209.251V208.914C83.0928 208.133 82.9951 207.396 82.7998 206.702C82.6143 205.999 82.3311 205.379 81.9502 204.842C81.5791 204.295 81.1104 203.865 80.5439 203.553C79.9873 203.24 79.333 203.084 78.5811 203.084C77.8389 203.084 77.1846 203.24 76.6182 203.553C76.0615 203.865 75.5928 204.295 75.2119 204.842C74.8408 205.379 74.5625 205.999 74.377 206.702C74.1914 207.396 74.0986 208.133 74.0986 208.914ZM98.9131 213.338V201.15H101.638V217H99.0449L98.9131 213.338ZM99.4258 209.998L100.554 209.969C100.554 211.023 100.441 212 100.217 212.898C100.002 213.787 99.6504 214.559 99.1621 215.213C98.6738 215.867 98.0342 216.38 97.2432 216.751C96.4521 217.112 95.4902 217.293 94.3574 217.293C93.5859 217.293 92.8779 217.181 92.2334 216.956C91.5986 216.731 91.0518 216.385 90.5928 215.916C90.1338 215.447 89.7773 214.837 89.5234 214.085C89.2793 213.333 89.1572 212.43 89.1572 211.375V201.15H91.8672V211.404C91.8672 212.117 91.9453 212.708 92.1016 213.177C92.2676 213.636 92.4873 214.002 92.7607 214.275C93.0439 214.539 93.3564 214.725 93.6982 214.832C94.0498 214.939 94.4111 214.993 94.7822 214.993C95.9346 214.993 96.8477 214.773 97.5215 214.334C98.1953 213.885 98.6787 213.284 98.9717 212.532C99.2744 211.771 99.4258 210.926 99.4258 209.998ZM108.479 204.534V217H105.769V201.15H108.332L108.479 204.534ZM107.834 208.475L106.706 208.431C106.716 207.347 106.877 206.346 107.189 205.428C107.502 204.5 107.941 203.694 108.508 203.011C109.074 202.327 109.748 201.8 110.529 201.429C111.32 201.048 112.194 200.857 113.151 200.857C113.933 200.857 114.636 200.965 115.261 201.18C115.886 201.385 116.418 201.717 116.857 202.176C117.307 202.635 117.648 203.23 117.883 203.963C118.117 204.686 118.234 205.569 118.234 206.614V217H115.51V206.585C115.51 205.755 115.388 205.091 115.144 204.593C114.899 204.085 114.543 203.719 114.074 203.494C113.605 203.26 113.029 203.143 112.346 203.143C111.672 203.143 111.057 203.284 110.5 203.567C109.953 203.851 109.479 204.241 109.079 204.739C108.688 205.237 108.381 205.809 108.156 206.453C107.941 207.088 107.834 207.762 107.834 208.475ZM132.341 213.924V194.5H135.065V217H132.575L132.341 213.924ZM121.677 209.251V208.943C121.677 207.732 121.823 206.634 122.116 205.647C122.419 204.651 122.844 203.797 123.391 203.084C123.947 202.371 124.606 201.824 125.368 201.443C126.14 201.053 126.999 200.857 127.946 200.857C128.942 200.857 129.812 201.033 130.554 201.385C131.306 201.727 131.94 202.229 132.458 202.894C132.985 203.548 133.4 204.339 133.703 205.267C134.006 206.194 134.216 207.244 134.333 208.416V209.764C134.226 210.926 134.016 211.971 133.703 212.898C133.4 213.826 132.985 214.617 132.458 215.271C131.94 215.926 131.306 216.429 130.554 216.78C129.802 217.122 128.923 217.293 127.917 217.293C126.989 217.293 126.14 217.093 125.368 216.692C124.606 216.292 123.947 215.73 123.391 215.008C122.844 214.285 122.419 213.436 122.116 212.459C121.823 211.473 121.677 210.403 121.677 209.251ZM124.401 208.943V209.251C124.401 210.042 124.479 210.784 124.636 211.478C124.802 212.171 125.056 212.781 125.397 213.309C125.739 213.836 126.174 214.251 126.701 214.554C127.229 214.847 127.858 214.993 128.591 214.993C129.489 214.993 130.227 214.803 130.803 214.422C131.389 214.041 131.857 213.538 132.209 212.913C132.561 212.288 132.834 211.609 133.029 210.877V207.347C132.912 206.81 132.741 206.292 132.517 205.794C132.302 205.286 132.019 204.837 131.667 204.446C131.325 204.046 130.9 203.729 130.393 203.494C129.895 203.26 129.304 203.143 128.62 203.143C127.878 203.143 127.238 203.299 126.701 203.611C126.174 203.914 125.739 204.334 125.397 204.871C125.056 205.398 124.802 206.014 124.636 206.717C124.479 207.41 124.401 208.152 124.401 208.943Z" fill="black"/>
</svg>
